<svg id="Assignment_Nav" data-name="Assignment Nav" xmlns="http://www.w3.org/2000/svg" width="56" height="56" viewBox="0 0 56 56">
  <g id="Group_83" data-name="Group 83">
    <rect id="Rectangle_51" data-name="Rectangle 51" width="56" height="56" rx="9" fill="rgba(255,255,255,0.25)"/>
  </g>
  <path id="Icon_material-assignment-returned" data-name="Icon material-assignment-returned" d="M40.555,6.007H31.136a6.734,6.734,0,0,0-12.709,0H9.007A4.52,4.52,0,0,0,4.5,10.514V42.062a4.52,4.52,0,0,0,4.507,4.507H40.555a4.52,4.52,0,0,0,4.507-4.507V10.514A4.52,4.52,0,0,0,40.555,6.007Zm-15.774,0A2.253,2.253,0,1,1,22.528,8.26,2.26,2.26,0,0,1,24.781,6.007Zm0,33.8L13.514,28.541h6.76V19.528h9.014v9.014h6.76Z" transform="translate(3.219 3.5)" fill="#f1f7f9"/>
</svg>
